<?xml version="1.0"?>
<svg xmlns="http://www.w3.org/2000/svg" height="512px" viewBox="0 -27 512 512" width="512px"><path d="m475 244.34375v-15.558594c0-37.5-30.519531-68.019531-68.019531-68.019531h-301.960938c-37.5 0-68.019531 30.519531-68.019531 68.019531v15.558594c-22.140625 13.171875-37 37.339844-37 64.921875 0 27.578125 14.859375 51.75 37 64.917969v15.558594c0 37.5 30.519531 68.023437 68.019531 68.023437h301.960938c37.5 0 68.019531-30.523437 68.019531-68.023437v-15.558594c22.140625-13.167969 37-37.339844 37-64.917969 0-27.582031-14.859375-51.75-37-64.921875zm-30 109.621094c-2.75.527344-5.601562.800781-8.5.800781h-361c-2.898438 0-5.75-.273437-8.5-.800781-12.601562-2.390625-23.378906-9.992188-30-20.472656-4.429688-7.019532-7-15.328126-7-24.226563 0-8.902344 2.570312-17.210937 7-24.230469 6.621094-10.480468 17.398438-18.082031 30-20.472656 2.75-.527344 5.601562-.796875 8.5-.796875h361c2.898438 0 5.75.269531 8.5.796875 12.601562 2.390625 23.378906 9.992188 30 20.472656 4.429688 7.019532 7 15.328125 7 24.230469 0 8.898437-2.570312 17.207031-7 24.226563-6.621094 10.480468-17.398438 18.082031-30 20.472656zm-378-125.179688c0-20.960937 17.058594-38.019531 38.019531-38.019531h301.960938c20.960937 0 38.019531 17.058594 38.019531 38.019531v5.457032c-2.789062-.316407-5.628906-.476563-8.5-.476563h-361c-2.871094 0-5.710938.160156-8.5.476563zm378 160.957032c0 20.960937-17.058594 38.023437-38.019531 38.023437h-301.960938c-20.960937 0-38.019531-17.0625-38.019531-38.023437v-5.457032c2.789062.320313 5.628906.480469 8.5.480469h361c2.871094 0 5.710938-.160156 8.5-.480469zm0 0" fill="#FFFFFF"/><path d="m402.511719 301.484375c-9.390625 5.507813-21.011719 5.441406-30.339844-.160156l-19.652344-11.820313c-18.757812-11.28125-42.140625-11.410156-61.019531-.339844l-21 12.320313c-9.390625 5.507813-21.011719 5.441406-30.339844-.160156l-19.648437-11.820313c-18.761719-11.28125-42.140625-11.410156-61.023438-.339844l-21 12.320313c-9.386719 5.507813-21.019531 5.441406-30.339843-.160156l-19.527344-11.738281-15.449219 25.707031 19.519531 11.742187c18.738282 11.269532 42.109375 11.390625 60.96875.328125l21.011719-12.320312c9.398437-5.507813 21.039063-5.449219 30.378906.171875l19.648438 11.820312c18.742187 11.269532 42.109375 11.390625 60.972656.328125l21.007813-12.320312c9.398437-5.507813 21.039062-5.449219 30.378906.171875l19.652344 11.820312c9.46875 5.6875 20.117187 8.539063 30.769531 8.539063 10.429687 0 20.871093-2.730469 30.210937-8.210938l21-12.320312-15.171875-25.878907zm0 0" fill="#FFFFFF"/><path d="m167.238281 99.109375.097657-.136719 24.277343 17.628906c7.363281-10.140624 16.6875-34.722656-.714843-55.175781-6.355469-7.472656.089843-17.359375.84375-18.464843l-.09375.136718-24.347657-17.53125c-7.339843 10.195313-16.628906 34.875.75 55.300782 6.320313 7.429687-.0625 17.160156-.8125 18.242187zm0 0" fill="#FFFFFF"/><path d="m244.222656 99.070312.066406-.097656 24.277344 17.628906c9.089844-12.523437 20.644532-42.832031-.714844-67.933593-11.179687-13.136719-.441406-29.425781.820313-31.238281l-.070313.097656-24.347656-17.527344c-9.066406 12.597656-20.582031 43.039062.75 68.109375 11.144532 13.101563.472656 29.171875-.78125 30.960937zm0 0" fill="#FFFFFF"/><path d="m326.882812 99.105469.097657-.136719 24.277343 17.628906c7.363282-10.144531 16.6875-34.726562-.714843-55.179687-6.355469-7.46875.089843-17.359375.84375-18.464844l-.09375.136719-24.347657-17.527344c-7.339843 10.195312-16.628906 34.871094.75 55.296875 6.324219 7.429687-.0625 17.160156-.8125 18.246094zm0 0" fill="#FFFFFF"/></svg>
