<?xml version="1.0"?>
<svg xmlns="http://www.w3.org/2000/svg" height="512px" viewBox="-47 0 512 512" width="512px"><path d="m19.367188 292.84375c8.023437 17.058594 18.363281 33.074219 30.851562 47.550781 29.5625 34.261719 69.355469 57.988281 113.132812 67.691407v73.925781h-60.558593v29.988281h211.914062v-29.988281h-60.5625v-73.925781c43.777344-9.703126 83.570313-33.429688 113.132813-67.691407 12.488281-14.476562 22.828125-30.492187 30.851562-47.550781zm0 0" fill="#FFFFFF"/><path d="m188.796875 188.75h181.207031c-1.25-48.957031-41.335937-88.28125-90.605468-88.28125-17.722657 0-34.265626 5.085938-48.230469 13.894531-8.546875 5.367188-16.121094 12.132813-22.417969 19.980469-12.046875 14.964844-19.433594 33.835938-19.953125 54.40625zm0 0" fill="#FFFFFF"/><path d="m47.492188 188.75h111.316406c.507812-27.46875 10.164062-53.425781 27.519531-74.386719-13.964844-8.808593-30.507813-13.894531-48.230469-13.894531-49.269531 0-89.355468 39.324219-90.605468 88.28125zm0 0" fill="#FFFFFF"/><path d="m138.097656 70.480469c25.730469 0 50.230469 7.996093 70.652344 22.828125 20.417969-14.832032 44.921875-22.828125 70.648438-22.828125 8.878906 0 17.609374.957031 26.074218 2.8125-11.878906-42.238281-50.738281-73.292969-96.722656-73.292969s-84.847656 31.054688-96.726562 73.292969c8.464843-1.855469 17.195312-2.8125 26.074218-2.8125zm0 0" fill="#FFFFFF"/><path d="m409.519531 262.855469c4.210938-14.308594 6.898438-29.097657 7.976563-44.117188h-417.496094c1.078125 15.019531 3.765625 29.808594 7.980469 44.117188zm0 0" fill="#FFFFFF"/></svg>
