<?xml version="1.0" encoding="iso-8859-1"?>
<!-- Generator: Adobe Illustrator 19.0.0, SVG Export Plug-In . SVG Version: 6.00 Build 0)  -->
<svg xmlns="http://www.w3.org/2000/svg" xmlns:xlink="http://www.w3.org/1999/xlink" version="1.1" id="Capa_1" x="0px" y="0px" viewBox="0 0 512 512" style="enable-background:new 0 0 512 512;" xml:space="preserve" width="512px" height="512px">
<g>
	<g>
		<path d="M452.012,163.918V76.037c0-12.086-4.943-23.469-13.919-32.049c-8.729-8.345-20.12-12.941-32.071-12.941H106.084    c-24.808,0-44.991,20.183-44.991,44.991v87.847C-4.728,390.197,0.016,372.59,0.106,376.281v89.675    c0,8.282,6.715,14.997,14.997,14.997h481.9c8.282,0,14.997-6.715,14.997-14.997v-89.981    C512,370.818,512.01,375.876,452.012,163.918z M91.087,76.037c0-8.269,6.728-14.997,14.997-14.997h299.938    c8.521,0,15.997,7.008,15.997,14.997v74.984h-30.994v-14.997c0-24.808-20.183-44.991-44.991-44.991h-59.988    c-11.515,0-22.027,4.353-29.994,11.493c-7.966-7.141-18.479-11.493-29.994-11.493h-59.988c-24.808,0-44.991,20.183-44.991,44.991    v14.997H91.087V76.037z M361.031,136.025v29.994c0,8.269-6.728,14.997-14.997,14.997h-59.988c-8.269,0-14.997-6.728-14.997-14.997    v-29.994c0-8.269,6.728-14.997,14.997-14.997h59.988C354.304,121.028,361.031,127.755,361.031,136.025z M241.056,136.025v29.994    c0,8.269-6.728,14.997-14.997,14.997h-59.988c-8.269,0-14.997-6.728-14.997-14.997v-29.994c0-8.269,6.728-14.997,14.997-14.997    h59.988C234.328,121.028,241.056,127.755,241.056,136.025z M87.351,181.015h36.31c6.191,17.455,22.86,29.994,42.411,29.994h59.988    c11.515,0,22.027-4.353,29.994-11.493c7.966,7.141,18.479,11.493,29.994,11.493h59.988c19.551,0,36.221-12.538,42.411-29.994    h37.258l25.239,88.337c-17.46,3.54-36.195,0.002-50.85-9.767c-32.384-21.589-74.235-21.589-106.619,0    c-22.276,14.852-51.066,14.851-73.344,0c-32.383-21.589-74.235-21.589-106.619,0c-15.27,10.179-33.939,13.52-51.704,9.367    L87.351,181.015z M53.432,297.785c26.289,6.606,54.074,1.851,76.717-13.244c22.276-14.851,51.066-14.852,73.343,0    c16.195,10.796,34.749,16.194,53.31,16.193c18.556-0.001,37.118-5.399,53.309-16.193c22.278-14.851,51.067-14.851,73.344,0    c21.859,14.572,49.922,19.595,75.744,13.712l17.921,62.724H35.076L53.432,297.785z M482.006,450.96H30.1v-59.988h451.906V450.96z" fill="#FFFFFF"/>
	</g>
</g>
<g>
</g>
<g>
</g>
<g>
</g>
<g>
</g>
<g>
</g>
<g>
</g>
<g>
</g>
<g>
</g>
<g>
</g>
<g>
</g>
<g>
</g>
<g>
</g>
<g>
</g>
<g>
</g>
<g>
</g>
</svg>
