<?xml version="1.0" encoding="iso-8859-1"?>
<!-- Generator: Adobe Illustrator 19.0.0, SVG Export Plug-In . SVG Version: 6.00 Build 0)  -->
<svg xmlns="http://www.w3.org/2000/svg" xmlns:xlink="http://www.w3.org/1999/xlink" version="1.1" id="Capa_1" x="0px" y="0px" viewBox="0 0 469.332 469.332" style="enable-background:new 0 0 469.332 469.332;" xml:space="preserve" width="512px" height="512px">
<g>
	<g>
		<g>
			<path d="M466.207,436.041L323.592,293.426c29.948-37.927,45.266-87.921,36.725-141.518     c-12.07-75.739-72.891-137.052-148.582-149.42C88.095-17.714-17.714,88.095,2.488,211.735     c12.368,75.691,73.68,136.512,149.42,148.582c53.597,8.542,103.591-6.777,141.518-36.725l142.615,142.615     c4.166,4.166,10.919,4.166,15.085,0l15.082-15.082C470.373,446.96,470.373,440.206,466.207,436.041z M181.333,320     c-76.458,0-138.667-62.208-138.667-138.667c0-76.458,62.208-138.667,138.667-138.667C257.792,42.667,320,104.875,320,181.333     C320,257.792,257.792,320,181.333,320z" fill="#FFFFFF"/>
			<path d="M276.255,213.333c-4.602-40.9-34.583-74.107-74.079-82.908c0.099-0.833,0.491-1.566,0.491-2.426     c0-11.76-9.573-21.333-21.333-21.333c-11.76,0-21.333,9.573-21.333,21.333c0,0.859,0.392,1.592,0.491,2.426     c-39.496,8.801-69.478,42.008-74.079,82.908h-1.078c-5.896,0-10.667,4.771-10.667,10.667c0,5.896,4.771,10.667,10.667,10.667h192     c5.896,0,10.667-4.771,10.667-10.667c0-5.896-4.771-10.667-10.667-10.667H276.255z" fill="#FFFFFF"/>
		</g>
	</g>
</g>
<g>
</g>
<g>
</g>
<g>
</g>
<g>
</g>
<g>
</g>
<g>
</g>
<g>
</g>
<g>
</g>
<g>
</g>
<g>
</g>
<g>
</g>
<g>
</g>
<g>
</g>
<g>
</g>
<g>
</g>
</svg>
